<?xml version="1.0" encoding="UTF-8" standalone="no"?>
<!DOCTYPE svg PUBLIC "-//W3C//DTD SVG 1.1//EN"
 "http://www.w3.org/Graphics/SVG/1.1/DTD/svg11.dtd">
<!-- Generated by graphviz version 2.47.0 (20210316.0004)
 -->
<!-- Title: dependencies Pages: 1 -->
<svg width="504pt" height="211pt"
 viewBox="0.00 0.00 504.00 211.00" xmlns="http://www.w3.org/2000/svg" xmlns:xlink="http://www.w3.org/1999/xlink">
<g id="graph0" class="graph" transform="scale(1 1) rotate(0) translate(4 207)">
<title>dependencies</title>
<polygon fill="white" stroke="transparent" points="-4,4 -4,-207 500,-207 500,4 -4,4"/>
<text text-anchor="start" x="227.01" y="-42.4" font-family="Times-12" font-weight="bold" font-size="14.00">Legend</text>
<polygon fill="#ffffb3" stroke="transparent" points="14,-10 14,-30 34,-30 34,-10 14,-10"/>
<text text-anchor="start" x="37.63" y="-15.4" font-family="Times-12" font-size="14.00"> &#160;Declarations</text>
<polygon fill="#8dd3c7" stroke="transparent" points="127,-10 127,-30 147,-30 147,-10 127,-10"/>
<text text-anchor="start" x="150.73" y="-15.4" font-family="Times-12" font-size="14.00"> &#160;Module</text>
<polygon fill="#80b1d3" stroke="transparent" points="213,-10 213,-30 233,-30 233,-10 213,-10"/>
<text text-anchor="start" x="236.78" y="-15.4" font-family="Times-12" font-size="14.00"> &#160;Bootstrap</text>
<polygon fill="#fdb462" stroke="transparent" points="310,-10 310,-30 330,-30 330,-10 310,-10"/>
<text text-anchor="start" x="333.67" y="-15.4" font-family="Times-12" font-size="14.00"> &#160;Providers</text>
<polygon fill="#fb8072" stroke="transparent" points="406,-10 406,-30 426,-30 426,-10 406,-10"/>
<text text-anchor="start" x="429.73" y="-15.4" font-family="Times-12" font-size="14.00"> &#160;Exports</text>
<g id="clust1" class="cluster">
<title>cluster_BooksModule</title>
<polygon fill="none" stroke="black" stroke-dasharray="1,5" points="111,-70 111,-195 385,-195 385,-70 111,-70"/>
</g>
<g id="clust3" class="cluster">
<title>cluster_BooksModule_imports</title>
<polygon fill="none" stroke="black" points="273,-78 273,-130 377,-130 377,-78 273,-78"/>
</g>
<g id="clust6" class="cluster">
<title>cluster_BooksModule_providers</title>
<polygon fill="none" stroke="black" points="119,-78 119,-130 265,-130 265,-78 119,-78"/>
</g>
<!-- AuthModule -->
<g id="node1" class="node">
<title>AuthModule</title>
<polygon fill="#8dd3c7" stroke="black" points="368.55,-122 365.55,-126 344.55,-126 341.55,-122 281.45,-122 281.45,-86 368.55,-86 368.55,-122"/>
<text text-anchor="middle" x="325" y="-99.8" font-family="Times,serif" font-size="14.00">AuthModule</text>
</g>
<!-- BooksModule -->
<g id="node2" class="node">
<title>BooksModule</title>
<polygon fill="#8dd3c7" stroke="black" points="305.83,-187 302.83,-191 281.83,-191 278.83,-187 210.17,-187 210.17,-151 305.83,-151 305.83,-187"/>
<text text-anchor="middle" x="258" y="-164.8" font-family="Times,serif" font-size="14.00">BooksModule</text>
</g>
<!-- AuthModule&#45;&gt;BooksModule -->
<g id="edge1" class="edge">
<title>AuthModule&#45;&gt;BooksModule</title>
<path fill="none" stroke="black" d="M293.45,-122.11C293.45,-122.11 293.45,-140.99 293.45,-140.99"/>
<polygon fill="black" stroke="black" points="289.95,-140.99 293.45,-150.99 296.95,-140.99 289.95,-140.99"/>
</g>
<!-- BooksService -->
<g id="node3" class="node">
<title>BooksService</title>
<ellipse fill="#fdb462" stroke="black" cx="192" cy="-104" rx="64.85" ry="18"/>
<text text-anchor="middle" x="192" y="-99.8" font-family="Times,serif" font-size="14.00">BooksService</text>
</g>
<!-- BooksService&#45;&gt;BooksModule -->
<g id="edge2" class="edge">
<title>BooksService&#45;&gt;BooksModule</title>
<path fill="none" stroke="black" d="M233.5,-118.1C233.5,-118.1 233.5,-140.72 233.5,-140.72"/>
<polygon fill="black" stroke="black" points="230,-140.72 233.5,-150.72 237,-140.72 230,-140.72"/>
</g>
</g>
</svg>
